<?xml version="1.0" encoding="utf-8"?>
<!-- Generator: Adobe Illustrator 24.3.0, SVG Export Plug-In . SVG Version: 6.00 Build 0)  -->
<svg version="1.0" id="katman_1" xmlns="http://www.w3.org/2000/svg" xmlns:xlink="http://www.w3.org/1999/xlink" x="0px" y="0px"
	 viewBox="0 0 279.31 279.31" style="enable-background:new 0 0 279.31 279.31;" xml:space="preserve">
<style type="text/css">
	.st0{fill:#E71E3C;}
	.st1{fill:#FFFFFF;}
</style>
<g transform="translate(-514.158 -673.923)">
	<circle class="st0" cx="653.81" cy="813.58" r="139.66"/>
	<g transform="translate(521.129 681.232)">
		<path class="st1" d="M197.68,173.54c0.3,2.04-0.42,4.1-1.93,5.51l-18.33,18.18c-0.91,0.98-2,1.77-3.21,2.34
			c-1.24,0.61-2.57,1.03-3.94,1.24l-0.82,0.06c-0.46,0-1.07,0.06-1.79,0.06c-2.84-0.1-5.68-0.4-8.48-0.89
			c-4.93-0.91-9.74-2.39-14.33-4.41c-6.73-2.92-13.17-6.45-19.25-10.55c-8.27-5.6-15.94-12.06-22.87-19.25
			c-5.83-5.62-11.19-11.7-16.04-18.18c-3.78-5.09-7.19-10.45-10.19-16.04c-2.3-4.28-4.24-8.75-5.79-13.36
			c-1.13-3.38-2.01-6.84-2.62-10.34c-0.4-2.25-0.59-4.54-0.55-6.82c0.1-1.65,0.14-2.57,0.14-2.76c0.21-1.37,0.63-2.69,1.25-3.93
			c0.56-1.21,1.35-2.3,2.33-3.21L89.6,72.87c1.14-1.23,2.74-1.93,4.42-1.94c1.16-0.02,2.29,0.36,3.21,1.07
			c0.93,0.71,1.72,1.57,2.34,2.56l14.74,27.97c0.83,1.46,1.08,3.18,0.7,4.81c-0.33,1.67-1.14,3.21-2.34,4.42l-6.75,6.75
			c-0.23,0.25-0.4,0.56-0.49,0.89c-0.12,0.34-0.19,0.7-0.2,1.07c0.51,2.31,1.35,4.54,2.48,6.61c1.49,2.82,3.19,5.51,5.1,8.06
			c2.96,3.92,6.23,7.58,9.79,10.96c3.4,3.58,7.09,6.87,11.03,9.85c2.55,1.92,5.24,3.65,8.05,5.17c1.56,0.88,3.23,1.55,4.96,2
			l1.72,0.34c0.31-0.03,0.61-0.09,0.9-0.2c0.33-0.09,0.63-0.26,0.89-0.48l7.85-8c1.58-1.43,3.65-2.22,5.79-2.19
			c1.29-0.06,2.58,0.22,3.72,0.82h0.15l26.59,15.71c1.75,0.95,3.01,2.61,3.44,4.56V173.54z"/>
	</g>
</g>
</svg>
